<?xml version="1.0" encoding="iso-8859-1"?>
<!-- Generator: Adobe Illustrator 16.0.0, SVG Export Plug-In . SVG Version: 6.00 Build 0)  -->
<!DOCTYPE svg PUBLIC "-//W3C//DTD SVG 1.1//EN" "http://www.w3.org/Graphics/SVG/1.1/DTD/svg11.dtd">
<svg version="1.1" id="Capa_1" xmlns="http://www.w3.org/2000/svg" xmlns:xlink="http://www.w3.org/1999/xlink" x="0px" y="0px"
	 width="43.458px" height="43.458px" viewBox="0 0 43.458 43.458" style="fill:#FFF;enable-background:new 0 0 43.458 43.458;"
	 xml:space="preserve">
<g>
	<path d="M33.798,18.667c-0.25-0.042,0.167-0.875,0.875-2.917c0.708-2.041,1.958-5.416,2.125-5.958s-1.75-0.667-1.958-0.667
		s-0.042-0.416,0.042-1.5c0.083-1.083,0.167-3.25,0.375-4.25S35.174,2.125,34.549,2s-2.917-0.208-3.333-0.166
		c-0.417,0.041-0.75,2.375-1.125,4.083s-0.458,2.792-0.583,2.75s0-1.458,0.042-3.083s0.542-3.459,0.708-4.292
		c0.167-0.833-0.333-0.917-1.667-1.083C27.256,0.042,26.423,0,25.964,0s-0.5,1.5-0.833,3.375s-0.75,5.25-0.75,5.25
		s-0.458-1.458-0.625-1.708c-0.167-0.25-0.25-0.5-0.25-1.167c0-0.666-0.208-3.541-0.042-4.666s-0.875-1-1.333-0.792
		s-0.958,0.042-2.25,0.167s-1.417,0.708-1.458,1.208c-0.042,0.5,0.042,3.708,0.042,3.708s-0.458,0.042-0.583,0
		C17.758,5.334,17.8,3.584,17.8,2.584s-1-0.709-2.083-0.667s-2.125-0.042-2.667,0S12.8,6.542,12.8,6.542s-0.21-0.458-0.46-1.125
		s-1.041-3.625-1.083-3.792C11.215,1.459,10.007,1.792,9.507,2c-0.5,0.209-1.375,0.334-2.292,0.625
		c-0.917,0.292-0.5,0.792-0.25,1.584C7.215,5,8.549,8.25,8.549,8.25S8.007,8.459,7.257,8.834s0.292,2.458,1.125,4.958
		s1.583,4.792,1.583,4.792s-1.542,0.541-2.708,0.875c-1.167,0.333-0.245,1.624-0.083,2.291c0.333,1.375,1.042,6.375,2.375,11.792
		s2.208,9.5,2.75,9.875s4.958-1.958,8.458-1.875c3.5,0.083,7.75,1.458,8.333,1.458s0.833-0.375,2.042-4.791
		c1.208-4.417,3.667-16.792,4.042-18.209C35.548,18.584,34.048,18.709,33.798,18.667z M30.839,6.959
		c0.708-2.75,0.5-3.625,1.75-3.584c1.25,0.042,1.792-0.083,1.667,0.792s-0.625,2.708-0.667,3.417
		c-0.042,0.708-0.208,1.333-0.5,2.125c-0.292,0.791-2.25,5.416-2.75,6.5c-0.5,1.083-0.958,2.208-1.333,2.083
		c-0.201-0.067-0.083-1.333,0-2.333S30.131,9.709,30.839,6.959z M29.256,10.459c-0.167,0.791-1.042,4.291-1.25,5.75
		c-0.208,1.458-0.208,1.916-0.5,1.916s-1.333-0.25-1.333-0.25l-0.167-2.708c0,0,1.375-4.958,1.75-5.083S29.423,9.667,29.256,10.459z
		 M25.256,8.5c0.208-1.625,0.833-5.458,1.042-6.291c0.208-0.834,0.417-0.75,1.083-0.75c0.667,0,1.792,0.166,1.625,0.916
		s-0.333,3.084-0.458,3.792s0,2.417-0.375,2.5s-1.042-0.458-1.292,0.167s-1.542,5.375-1.542,5.375l-1.167-4.125
		C24.173,10.084,25.048,10.125,25.256,8.5z M23.007,8.375c0.083,0.709,0.583,4.125,1.083,5.5c0.5,1.375,0.917,2.959,1,3.334
		s0.417,0.916-0.125,0.916s-2.125,0.334-2.375-0.791s-1.125-6.5-1.125-6.5c-0.208-0.542-0.542-2.125-0.375-2.292
		S22.924,7.667,23.007,8.375z M19.59,1.834c0.292-0.042,0.917,0,1.5-0.25s1.208-0.667,1.25,0.166
		c0.042,0.834,0.083,2.875,0.083,3.292S22.799,6.959,22.299,7c-0.5,0.042-0.875,0.167-1.042,0.209
		C21.09,7.25,20.674,7.375,20.715,6.75s0-1.5-0.417-1.458s-0.833,0-0.833,0S19.299,1.875,19.59,1.834z M17.299,6.709
		c0.458-0.042,1.542,0,2,0s0.5,0,0.5,0.875s0.167,5.375,0.167,6s-0.042,1.5,0.042,1.75c0.083,0.25,0.042,2.833-0.083,2.833
		s-2.875,0.125-2.875,0.125s0.625-2.458,0.458-3.708s-0.75-1.959-0.708-2.667s0.25-4.167,0.25-4.167S16.84,6.75,17.299,6.709z
		 M14.34,3.542c0.458-0.167,1.208-0.125,1.75-0.167c0.542-0.041,0.792,0.25,0.792,0.792s0,1.042,0,1.042s-0.542,0.041-0.75,1
		c-0.208,0.958-0.25,3.75-0.25,5s0.208,1.458,0.333,2.25c0.125,0.791,0.167,1.833-0.083,2.75c-0.25,0.916-0.292,1.708-0.292,1.958
		s-0.125,0.542-0.417,0.542s-1,0.125-1.042-0.5s-0.25-12.417-0.25-12.417C14.174,4.667,13.882,3.709,14.34,3.542z M8.257,4.875
		c0,0-0.583-0.708,0.333-1.125c0.917-0.416,1.625-0.916,1.875-0.5c0.25,0.417,2.292,5.917,2.417,6.334
		c0.125,0.416,0.375,0.916,0.417,1.208s0.083,4.833,0.083,4.833s-1.917-5.333-2.333-6.791c-0.417-1.459-0.875-1.25-1.417-1.042
		L8.257,4.875z M8.424,10.5c-0.417-0.958,0.583-1,1.125-1.083s0.333-0.042,0.667,1.25s1.792,4.875,2.208,6.25
		c0.417,1.375,0.333,1.625,0.125,1.625h-1c-0.542,0-0.583-0.875-0.583-0.875S8.84,11.459,8.424,10.5z M33.048,21.959
		c-0.042,0.916-2.292,10.5-3.25,14.083s-1.167,4.708-1.583,4.583s-4.625-1-7.583-0.833s-4.75,0.542-5.833,0.833
		c-1.083,0.292-1.458,0.792-1.542,0.125c-0.083-0.666-4.292-17.583-4.292-17.583c-0.25-1.167-0.875-2.042,0-2.375
		s7.375-1.292,12.083-1.417c4.708-0.125,10.667,0.834,11.417,1.125C33.214,20.792,33.089,21.042,33.048,21.959z M32.298,18.834
		c-0.417-0.084-1.5-0.5-1.5-0.5c-0.125,0,0.167-0.792,0.667-2.167s1.792-4.542,2.125-5.25s0.208-0.75,0.75-0.75
		s1.417-0.292,0.958,0.875c-0.458,1.167-1.125,2.625-1.667,4.5S32.714,18.917,32.298,18.834z"/>
</g>
<g>
</g>
<g>
</g>
<g>
</g>
<g>
</g>
<g>
</g>
<g>
</g>
<g>
</g>
<g>
</g>
<g>
</g>
<g>
</g>
<g>
</g>
<g>
</g>
<g>
</g>
<g>
</g>
<g>
</g>
</svg>
